<?xml version="1.0" encoding="UTF-8" standalone="no"?>
<!DOCTYPE svg PUBLIC "-//W3C//DTD SVG 1.1//EN" "http://www.w3.org/Graphics/SVG/1.1/DTD/svg11.dtd">
<svg xmlns="http://www.w3.org/2000/svg" version="1.1" viewBox="0.00 0.00 235.00 227.00">
<g stroke-width="2.00" fill="none" stroke-linecap="butt">
<path stroke="#808080" vector-effect="non-scaling-stroke" d="
  M 90.21 40.28
  C 79.08 40.01 70.16 42.33 66.55 54.06
  Q 66.40 54.54 65.91 54.67
  C 53.22 57.81 41.64 60.56 41.64 76.25
  Q 41.63 76.78 41.18 77.04
  C 35.13 80.60 26.13 84.72 22.01 89.98
  Q 14.25 99.86 21.46 112.27
  Q 47.45 157.05 73.42 201.84
  C 78.52 210.64 82.97 215.92 93.14 215.58
  C 97.78 215.42 101.57 213.06 105.68 210.68
  Q 124.34 199.85 142.97 189.02
  Q 143.39 188.78 143.84 188.95
  C 155.87 193.53 170.46 184.05 172.45 171.74
  Q 172.92 168.84 173.80 167.04
  Q 193.27 127.02 212.83 87.03
  Q 217.30 77.89 217.75 73.85
  C 218.71 65.10 213.85 58.64 206.16 54.85
  Q 177.48 40.73 148.77 26.74
  Q 133.78 19.43 123.44 31.90
  Q 123.13 32.29 122.64 32.18
  C 116.54 30.84 109.28 28.75 103.59 30.04
  Q 95.31 31.92 90.90 39.88
  Q 90.68 40.29 90.21 40.28"
/>
<path stroke="#808080" vector-effect="non-scaling-stroke" d="
  M 160.09 38.44
  Q 152.94 34.79 145.94 31.65
  C 140.00 28.98 135.29 28.69 130.30 32.68
  Q 129.61 33.23 130.48 33.39
  L 159.99 38.72
  Q 161.01 38.91 160.09 38.44"
/>
<path stroke="#808080" vector-effect="non-scaling-stroke" d="
  M 130.27 39.10
  Q 120.96 37.16 111.35 35.57
  C 105.61 34.62 101.52 35.31 97.75 39.45
  Q 97.27 39.97 97.98 39.96
  L 130.24 39.41
  Q 131.61 39.38 130.27 39.10"
/>
<path stroke="#808080" vector-effect="non-scaling-stroke" d="
  M 165.15 57.82
  C 164.85 42.40 149.22 44.67 139.24 44.78
  Q 138.61 44.79 139.01 45.27
  Q 142.49 49.47 143.74 54.25
  Q 154.97 97.23 166.24 140.09
  A 0.24 0.23 -53.2 0 0 166.70 140.02
  Q 165.95 98.99 165.15 57.82"
/>
<path stroke="#808080" vector-effect="non-scaling-stroke" d="
  M 138.37 55.63
  C 136.55 48.77 130.78 43.80 123.34 45.50
  Q 113.57 47.74 103.76 50.31
  Q 103.19 50.46 103.69 50.78
  Q 108.84 54.05 112.45 60.30
  Q 136.99 102.76 161.56 145.20
  A 0.21 0.20 -67.8 0 0 161.93 145.04
  Q 150.25 100.37 138.37 55.63"
/>
<path stroke="#808080" vector-effect="non-scaling-stroke" d="
  M 73.41 51.61
  Q 72.41 52.82 73.93 52.42
  L 99.08 45.90
  A 0.23 0.23 0.0 0 0 99.01 45.45
  C 89.70 45.85 80.00 43.68 73.41 51.61"
/>
<path stroke="#808080" vector-effect="non-scaling-stroke" d="
  M 181.04 49.30
  Q 179.40 48.19 177.47 47.80
  L 167.08 45.67
  Q 166.44 45.53 166.80 46.09
  Q 170.54 51.86 170.69 60.25
  Q 171.40 99.91 172.12 140.37
  A 0.27 0.27 0.0 0 0 172.65 140.41
  Q 179.58 103.11 186.43 65.58
  C 187.74 58.40 187.11 53.41 181.04 49.30"
/>
<path stroke="#808080" vector-effect="non-scaling-stroke" d="
  M 212.49 72.73
  C 213.14 62.30 202.00 58.46 191.95 54.21
  Q 191.43 53.99 191.59 54.54
  Q 193.07 59.56 192.41 63.18
  Q 184.67 105.44 176.84 147.57
  A 0.17 0.16 -26.7 0 0 177.15 147.67
  Q 192.87 115.62 208.55 83.55
  Q 212.29 75.91 212.49 72.73"
/>
<path stroke="#808080" vector-effect="non-scaling-stroke" d="
  M 106.4558 60.8972
  A 13.20 13.20 0.0 0 0 88.4158 56.0972
  L 30.0873 89.9090
  A 13.20 13.20 0.0 0 0 25.2872 107.9489
  L 80.7242 203.5828
  A 13.20 13.20 0.0 0 0 98.7642 208.3828
  L 157.0927 174.5710
  A 13.20 13.20 0.0 0 0 161.8928 156.5311
  L 106.4558 60.8972"
/>
<path stroke="#808080" vector-effect="non-scaling-stroke" d="
  M 72.52 58.48
  C 64.57 60.58 48.41 62.43 47.33 73.00
  Q 47.27 73.58 47.77 73.28
  L 72.68 58.85
  A 0.20 0.20 0.0 0 0 72.52 58.48"
/>
<path stroke="#808080" vector-effect="non-scaling-stroke" d="
  M 95.09 66.74
  Q 97.46 67.46 98.87 69.46
  Q 99.50 70.37 99.50 69.26
  L 99.50 68.72
  A 0.29 0.29 0.0 0 1 99.91 68.45
  Q 102.40 69.57 102.62 72.30
  A 0.70 0.69 58.0 0 0 103.91 72.60
  Q 107.96 65.73 101.20 61.60
  A 0.27 0.27 0.0 0 0 100.81 61.95
  L 101.65 63.86
  A 0.81 0.81 0.0 0 1 100.61 64.94
  C 100.04 64.70 99.29 64.07 98.99 63.45
  Q 96.01 57.21 88.94 58.16
  Q 88.29 58.25 88.77 58.69
  C 90.81 60.59 93.54 64.13 91.64 66.84
  Q 91.30 67.32 90.83 66.97
  L 88.96 65.56
  A 0.53 0.50 -32.7 0 0 88.53 65.48
  L 85.58 66.23
  A 0.38 0.38 0.0 0 0 85.59 66.97
  C 92.77 68.53 88.36 78.19 97.31 76.89
  A 0.42 0.42 0.0 0 0 97.55 76.19
  Q 95.38 73.91 96.71 70.76
  A 1.04 1.03 -51.6 0 0 96.60 69.75
  L 94.76 67.20
  A 0.30 0.30 0.0 0 1 95.09 66.74"
/>
<path stroke="#808080" vector-effect="non-scaling-stroke" d="
  M 98.03 95.70
  Q 99.82 96.52 100.65 98.32
  A 0.92 0.89 -9.8 0 0 101.41 98.84
  C 103.40 98.98 106.24 98.08 106.27 95.64
  Q 106.29 93.98 105.17 93.30
  Q 101.73 91.23 98.47 88.82
  A 2.08 2.02 -85.1 0 1 97.79 87.99
  Q 96.63 85.46 94.25 84.01
  Q 93.86 83.78 93.62 83.39
  Q 90.34 78.10 84.58 81.13
  A 1.53 1.53 0.0 0 1 82.34 79.77
  C 82.36 73.77 76.70 72.54 73.29 76.65
  C 69.41 81.35 75.06 82.23 76.37 85.27
  A 0.78 0.77 -28.4 0 1 76.08 86.22
  C 72.89 88.32 71.90 90.95 73.16 94.75
  Q 74.59 99.07 76.59 102.92
  A 1.51 1.51 0.0 0 1 75.78 105.02
  Q 69.81 107.29 65.86 112.32
  Q 65.54 112.73 65.02 112.85
  C 47.87 116.89 60.28 127.73 64.49 134.43
  A 1.25 1.25 0.0 0 0 66.64 134.37
  L 68.73 130.61
  A 1.22 1.22 0.0 0 1 71.01 131.06
  C 71.97 139.27 77.08 139.24 80.57 145.13
  A 0.66 0.65 -30.4 0 0 81.47 145.36
  L 86.51 142.40
  Q 88.40 141.29 86.76 139.83
  L 79.17 133.09
  Q 78.78 132.75 78.80 132.23
  L 78.89 129.24
  A 0.46 0.46 0.0 0 1 79.77 129.08
  Q 81.74 133.96 86.45 136.33
  A 1.36 1.34 -2.4 0 1 86.99 136.82
  L 88.91 139.90
  Q 89.30 140.52 89.93 140.15
  L 94.78 137.33
  Q 96.91 136.09 95.04 134.49
  L 87.41 127.94
  A 0.69 0.68 22.9 0 1 87.17 127.36
  L 87.72 121.56
  Q 87.80 120.73 88.40 121.31
  Q 94.00 126.72 95.80 134.32
  A 2.01 2.01 0.0 0 0 98.41 135.76
  Q 101.64 134.64 103.43 131.89
  Q 103.73 131.41 103.32 131.03
  C 98.24 126.20 99.22 121.08 95.90 115.94
  A 1.13 1.13 0.0 0 1 97.52 114.41
  L 108.95 122.83
  Q 109.41 123.18 109.58 123.73
  Q 110.09 125.38 111.21 126.62
  A 1.02 1.01 -28.6 0 0 112.24 126.92
  Q 115.29 126.04 117.51 123.78
  Q 118.59 122.68 117.39 121.71
  Q 114.57 119.43 111.81 116.95
  C 108.47 113.93 106.65 109.52 103.28 106.11
  Q 102.94 105.76 102.93 105.27
  Q 102.79 99.40 97.74 96.24
  A 0.31 0.31 0.0 0 1 98.03 95.70"
/>
<path stroke="#808080" vector-effect="non-scaling-stroke" d="
  M 125.92 135.85
  Q 91.07 156.66 79.43 163.92
  Q 76.69 165.63 78.94 167.30"
/>
<path stroke="#a8a7aa" vector-effect="non-scaling-stroke" d="
  M 78.94 167.30
  L 80.40 167.66
  Q 80.88 167.78 81.31 167.52
  Q 116.68 146.11 125.75 140.75
  C 127.08 139.97 128.95 138.02 127.70 136.47
  Q 127.08 135.70 125.92 135.85"
/>
<path stroke="#28282a" vector-effect="non-scaling-stroke" d="
  M 78.94 167.30
  Q 80.39 166.86 80.83 166.60
  Q 104.01 152.58 127.15 138.49
  Q 127.62 138.21 127.50 137.68
  Q 127.29 136.76 125.92 135.85"
/>
<path stroke="#a8a7aa" vector-effect="non-scaling-stroke" d="
  M 93.42 170.54
  L 94.17 171.00
  Q 94.58 171.24 94.99 171.00
  Q 109.45 162.20 123.97 153.47
  Q 124.69 153.04 123.74 152.35"
/>
<path stroke="#808080" vector-effect="non-scaling-stroke" d="
  M 123.74 152.35
  L 123.70 151.49"
/>
<path stroke="#a8a7aa" vector-effect="non-scaling-stroke" d="
  M 123.70 151.49
  L 123.82 151.03
  Q 123.95 150.52 123.44 150.38
  L 121.93 149.96"
/>
<path stroke="#808080" vector-effect="non-scaling-stroke" d="
  M 121.93 149.96
  L 93.38 167.16
  Q 92.95 167.42 92.81 167.89
  Q 92.43 169.17 93.42 170.54"
/>
<path stroke="#28282a" vector-effect="non-scaling-stroke" d="
  M 121.93 149.96
  L 123.70 151.49"
/>
<path stroke="#28282a" vector-effect="non-scaling-stroke" d="
  M 123.74 152.35
  L 93.42 170.54"
/>
<path stroke="#808080" vector-effect="non-scaling-stroke" d="
  M 88.65 182.97
  Q 87.53 183.35 89.20 184.57
  A 1.94 1.92 -42.4 0 0 91.33 184.66
  Q 113.92 171.10 136.80 157.33
  Q 139.35 155.80 137.94 153.71"
/>
<path stroke="#a8a7aa" vector-effect="non-scaling-stroke" d="
  M 137.94 153.71
  Q 136.12 152.89 135.05 153.54
  Q 112.05 167.43 89.04 181.28
  Q 88.13 181.83 88.65 182.97"
/>
<path stroke="#28282a" vector-effect="non-scaling-stroke" d="
  M 137.94 153.71
  Q 137.01 153.76 134.83 155.09
  Q 111.82 169.12 88.65 182.97"
/>
<path stroke="#a8a7aa" vector-effect="non-scaling-stroke" d="
  M 156.43 158.88
  Q 155.63 160.36 155.99 161.99
  A 1.54 1.51 51.5 0 1 155.89 162.95
  Q 155.20 164.47 155.90 165.81
  A 0.65 0.65 0.0 0 0 156.79 166.08
  L 159.18 164.74
  A 0.39 0.38 -43.0 0 1 159.57 164.75
  L 160.62 165.41
  A 0.55 0.54 -0.6 0 0 161.37 164.65
  L 157.51 158.84
  A 0.63 0.63 0.0 0 0 156.43 158.88"
/>
<path stroke="#a8a7aa" vector-effect="non-scaling-stroke" d="
  M 151.74 168.99
  L 152.84 169.01
  A 0.18 0.18 0.0 0 0 153.02 168.83
  L 153.10 164.98
  A 5.47 0.60 -88.9 0 0 152.60 159.50
  L 152.34 159.50
  A 5.47 0.60 -88.9 0 0 151.64 164.96
  L 151.56 168.81
  A 0.18 0.18 0.0 0 0 151.74 168.99"
/>
<path stroke="#a8a7aa" vector-effect="non-scaling-stroke" d="
  M 149.72 169.88
  L 149.76 171.18
  Q 149.77 171.65 149.31 171.69
  L 147.31 171.88
  A 0.45 0.45 0.0 0 0 147.19 172.74
  Q 150.72 174.11 151.70 170.48
  A 0.77 0.76 36.4 0 0 151.60 169.86
  L 148.49 165.20
  Q 148.26 164.85 147.84 164.85
  Q 144.95 164.82 144.10 167.46
  A 0.76 0.76 0.0 0 0 145.49 168.05
  Q 146.07 166.96 147.23 166.52
  Q 148.07 166.21 147.83 167.08
  L 147.39 168.67
  Q 147.22 169.25 147.83 169.25
  L 149.07 169.25
  A 0.65 0.64 -0.4 0 1 149.72 169.88"
/>
<path stroke="#808080" vector-effect="non-scaling-stroke" d="
  M 102.96 185.99
  Q 102.71 187.59 104.74 187.63
  Q 105.69 187.65 106.78 187.01
  Q 120.40 178.94 133.95 170.64
  Q 134.39 170.37 134.34 169.86
  Q 134.22 168.76 133.20 167.08"
/>
<path stroke="#a8a7aa" vector-effect="non-scaling-stroke" d="
  M 133.20 167.08
  Q 117.59 175.09 103.28 184.38
  Q 102.78 184.70 102.71 185.04
  Q 102.61 185.51 102.96 185.99"
/>
<path stroke="#28282a" vector-effect="non-scaling-stroke" d="
  M 133.20 167.08
  Q 121.96 175.09 110.49 181.54
  Q 106.58 183.74 102.96 185.99"
/>
<path stroke="#808080" vector-effect="non-scaling-stroke" d="
  M 78.55 76.78
  Q 75.65 76.42 74.69 78.98
  Q 74.52 79.41 74.77 79.79
  Q 75.99 81.70 78.30 81.87
  A 1.17 1.17 0.0 0 0 79.55 80.63
  L 79.36 77.64
  A 0.93 0.92 -88.5 0 0 78.55 76.78"
/>
<path stroke="#808080" vector-effect="non-scaling-stroke" d="
  M 91.10 84.97
  L 89.61 82.75
  Q 89.28 82.25 88.68 82.24
  Q 86.23 82.21 84.51 83.92
  A 0.93 0.92 37.7 0 1 83.40 84.06
  L 81.57 83.02
  A 0.46 0.46 0.0 0 0 81.08 83.03
  L 79.21 84.28
  Q 78.62 84.68 78.74 85.39
  Q 79.21 88.11 76.23 88.70
  A 0.41 0.40 -32.0 0 0 76.06 89.42
  Q 78.14 91.00 79.09 93.48
  A 0.64 0.64 0.0 0 0 80.06 93.77
  L 82.82 91.85
  A 0.87 0.87 0.0 0 1 83.87 91.89
  Q 84.83 92.68 83.75 93.49
  Q 82.60 94.34 81.64 95.58
  Q 81.22 96.12 81.71 96.59
  L 85.21 100.03
  Q 85.58 100.39 85.15 100.68
  Q 82.48 102.52 82.89 105.85
  C 83.11 107.57 84.85 108.15 83.83 110.15
  Q 82.70 112.39 79.99 112.78
  A 1.27 1.26 -28.9 0 1 79.00 112.50
  Q 76.69 110.58 77.34 107.45
  A 0.45 0.45 0.0 0 0 76.76 106.94
  Q 68.38 109.74 64.77 117.88
  C 62.44 123.14 69.07 127.33 73.20 129.03
  A 0.77 0.77 0.0 0 1 73.68 129.76
  Q 73.59 136.78 79.98 139.47
  A 1.17 1.13 84.9 0 1 80.49 139.91
  L 81.82 142.01
  Q 82.21 142.63 82.83 142.24
  L 83.77 141.65
  Q 84.34 141.29 83.77 140.92
  Q 81.98 139.78 81.06 137.86
  A 1.42 1.39 87.4 0 0 80.32 137.17
  C 70.15 133.17 84.17 122.82 72.31 117.51
  Q 71.69 117.24 72.04 116.66
  L 72.22 116.35
  A 1.32 1.32 0.0 0 1 73.74 115.76
  Q 78.90 117.33 79.86 122.63
  Q 79.96 123.17 80.47 122.99
  Q 85.36 121.34 87.72 116.95
  A 0.92 0.92 0.0 0 1 89.37 117.01
  C 91.13 120.93 94.43 123.16 95.91 126.83
  Q 97.14 129.89 98.20 133.00
  Q 98.36 133.46 98.79 133.24
  L 100.04 132.60
  Q 100.63 132.30 100.20 131.80
  C 95.65 126.46 96.77 121.30 92.84 116.42
  Q 92.56 116.08 92.73 115.68
  Q 93.99 112.69 93.24 109.54
  A 0.93 0.92 -1.7 0 1 94.30 108.42
  Q 96.29 108.76 95.92 110.96
  A 0.45 0.45 0.0 0 0 96.61 111.41
  C 104.54 106.10 98.74 98.79 92.56 96.03
  A 0.44 0.44 0.0 0 1 92.31 95.75
  L 90.76 90.81
  Q 90.54 90.10 89.86 90.40
  L 87.08 91.58
  Q 86.50 91.83 86.16 91.31
  L 85.74 90.67
  Q 85.40 90.16 85.95 89.89
  L 88.37 88.70
  A 1.46 1.45 -37.9 0 0 88.67 86.29
  Q 87.85 85.60 87.25 84.56
  A 1.19 1.19 0.0 0 1 89.24 83.25
  C 92.78 87.98 92.93 92.27 99.39 93.84
  A 0.58 0.58 0.0 0 0 99.82 92.77
  L 96.23 90.67
  A 0.63 0.60 -86.4 0 1 95.95 90.34
  Q 94.61 86.93 91.39 85.23
  A 0.74 0.74 0.0 0 1 91.10 84.97"
/>
<path stroke="#808080" vector-effect="non-scaling-stroke" d="
  M 74.86 90.59
  C 75.54 93.55 76.82 98.60 78.91 100.78
  A 1.21 1.21 0.0 0 1 79.24 101.61
  L 79.26 105.15
  A 0.61 0.61 0.0 0 0 80.43 105.39
  C 83.37 98.59 75.92 96.59 75.69 90.44
  Q 75.68 90.25 75.49 90.25
  Q 75.33 90.25 75.16 90.24
  A 0.29 0.29 0.0 0 0 74.86 90.59"
/>
<path stroke="#808080" vector-effect="non-scaling-stroke" d="
  M 103.45 95.29
  L 101.73 94.25
  Q 100.85 93.72 101.17 94.70
  Q 101.59 96.03 102.71 96.62
  A 0.76 0.76 0.0 0 0 103.45 95.29"
/>
<path stroke="#808080" vector-effect="non-scaling-stroke" d="
  M 79.84 108.21
  Q 79.56 109.07 79.96 110.06
  A 1.00 0.81 -68.3 0 0 81.55 109.17
  Q 81.29 108.04 80.63 107.82
  Q 80.04 107.62 79.84 108.21"
/>
<path stroke="#808080" vector-effect="non-scaling-stroke" d="
  M 99.72 112.79
  C 103.17 116.00 111.26 119.52 112.59 124.01
  Q 112.79 124.68 113.39 124.33
  L 114.52 123.66
  Q 115.07 123.34 114.60 122.91
  Q 112.31 120.85 109.94 118.89
  C 106.73 116.25 105.12 112.31 102.57 109.01
  Q 102.13 108.43 101.70 109.02
  L 99.63 111.86
  Q 99.27 112.36 99.72 112.79"
/>
<path stroke="#808080" vector-effect="non-scaling-stroke" d="
  M 64.39 126.53
  Q 60.01 122.08 62.96 116.43
  Q 63.21 115.96 62.70 116.12
  C 53.93 118.96 62.17 127.03 65.05 130.19
  A 0.95 0.95 0.0 0 0 66.64 129.20
  C 65.94 127.46 65.48 127.63 64.39 126.53"
/>
<path stroke="#808080" vector-effect="non-scaling-stroke" d="
  M 91.90 135.67
  C 89.98 133.73 88.90 132.54 86.29 130.70
  C 84.20 129.24 84.81 126.04 85.02 123.88
  A 0.37 0.37 0.0 0 0 84.48 123.51
  L 81.67 124.92
  Q 81.11 125.20 81.28 125.80
  Q 82.96 131.83 88.57 134.66
  Q 89.26 135.00 89.99 136.78
  Q 90.25 137.40 90.85 137.11
  L 91.73 136.69
  Q 92.53 136.31 91.90 135.67"
/>
<path stroke="#a8a7aa" vector-effect="non-scaling-stroke" d="
  M 157.19 162.31
  Q 157.19 162.97 157.37 163.47
  A 0.64 0.55 30.7 0 0 158.55 163.26
  Q 158.23 162.27 157.69 161.46
  Q 157.29 160.87 157.05 161.55
  Q 156.88 162.05 157.19 162.31"
/>
</g>
<path fill="#ffffff" d="
  M 0.00 0.00
  L 235.00 0.00
  L 235.00 227.00
  L 0.00 227.00
  L 0.00 0.00
  Z
  M 90.21 40.28
  C 79.08 40.01 70.16 42.33 66.55 54.06
  Q 66.40 54.54 65.91 54.67
  C 53.22 57.81 41.64 60.56 41.64 76.25
  Q 41.63 76.78 41.18 77.04
  C 35.13 80.60 26.13 84.72 22.01 89.98
  Q 14.25 99.86 21.46 112.27
  Q 47.45 157.05 73.42 201.84
  C 78.52 210.64 82.97 215.92 93.14 215.58
  C 97.78 215.42 101.57 213.06 105.68 210.68
  Q 124.34 199.85 142.97 189.02
  Q 143.39 188.78 143.84 188.95
  C 155.87 193.53 170.46 184.05 172.45 171.74
  Q 172.92 168.84 173.80 167.04
  Q 193.27 127.02 212.83 87.03
  Q 217.30 77.89 217.75 73.85
  C 218.71 65.10 213.85 58.64 206.16 54.85
  Q 177.48 40.73 148.77 26.74
  Q 133.78 19.43 123.44 31.90
  Q 123.13 32.29 122.64 32.18
  C 116.54 30.84 109.28 28.75 103.59 30.04
  Q 95.31 31.92 90.90 39.88
  Q 90.68 40.29 90.21 40.28
  Z"
/>
<path fill="#000000" d="
  M 90.90 39.88
  Q 95.31 31.92 103.59 30.04
  C 109.28 28.75 116.54 30.84 122.64 32.18
  Q 123.13 32.29 123.44 31.90
  Q 133.78 19.43 148.77 26.74
  Q 177.48 40.73 206.16 54.85
  C 213.85 58.64 218.71 65.10 217.75 73.85
  Q 217.30 77.89 212.83 87.03
  Q 193.27 127.02 173.80 167.04
  Q 172.92 168.84 172.45 171.74
  C 170.46 184.05 155.87 193.53 143.84 188.95
  Q 143.39 188.78 142.97 189.02
  Q 124.34 199.85 105.68 210.68
  C 101.57 213.06 97.78 215.42 93.14 215.58
  C 82.97 215.92 78.52 210.64 73.42 201.84
  Q 47.45 157.05 21.46 112.27
  Q 14.25 99.86 22.01 89.98
  C 26.13 84.72 35.13 80.60 41.18 77.04
  Q 41.63 76.78 41.64 76.25
  C 41.64 60.56 53.22 57.81 65.91 54.67
  Q 66.40 54.54 66.55 54.06
  C 70.16 42.33 79.08 40.01 90.21 40.28
  Q 90.68 40.29 90.90 39.88
  Z
  M 160.09 38.44
  Q 152.94 34.79 145.94 31.65
  C 140.00 28.98 135.29 28.69 130.30 32.68
  Q 129.61 33.23 130.48 33.39
  L 159.99 38.72
  Q 161.01 38.91 160.09 38.44
  Z
  M 130.27 39.10
  Q 120.96 37.16 111.35 35.57
  C 105.61 34.62 101.52 35.31 97.75 39.45
  Q 97.27 39.97 97.98 39.96
  L 130.24 39.41
  Q 131.61 39.38 130.27 39.10
  Z
  M 165.15 57.82
  C 164.85 42.40 149.22 44.67 139.24 44.78
  Q 138.61 44.79 139.01 45.27
  Q 142.49 49.47 143.74 54.25
  Q 154.97 97.23 166.24 140.09
  A 0.24 0.23 -53.2 0 0 166.70 140.02
  Q 165.95 98.99 165.15 57.82
  Z
  M 138.37 55.63
  C 136.55 48.77 130.78 43.80 123.34 45.50
  Q 113.57 47.74 103.76 50.31
  Q 103.19 50.46 103.69 50.78
  Q 108.84 54.05 112.45 60.30
  Q 136.99 102.76 161.56 145.20
  A 0.21 0.20 -67.8 0 0 161.93 145.04
  Q 150.25 100.37 138.37 55.63
  Z
  M 73.41 51.61
  Q 72.41 52.82 73.93 52.42
  L 99.08 45.90
  A 0.23 0.23 0.0 0 0 99.01 45.45
  C 89.70 45.85 80.00 43.68 73.41 51.61
  Z
  M 181.04 49.30
  Q 179.40 48.19 177.47 47.80
  L 167.08 45.67
  Q 166.44 45.53 166.80 46.09
  Q 170.54 51.86 170.69 60.25
  Q 171.40 99.91 172.12 140.37
  A 0.27 0.27 0.0 0 0 172.65 140.41
  Q 179.58 103.11 186.43 65.58
  C 187.74 58.40 187.11 53.41 181.04 49.30
  Z
  M 212.49 72.73
  C 213.14 62.30 202.00 58.46 191.95 54.21
  Q 191.43 53.99 191.59 54.54
  Q 193.07 59.56 192.41 63.18
  Q 184.67 105.44 176.84 147.57
  A 0.17 0.16 -26.7 0 0 177.15 147.67
  Q 192.87 115.62 208.55 83.55
  Q 212.29 75.91 212.49 72.73
  Z
  M 106.4558 60.8972
  A 13.20 13.20 0.0 0 0 88.4158 56.0972
  L 30.0873 89.9090
  A 13.20 13.20 0.0 0 0 25.2872 107.9489
  L 80.7242 203.5828
  A 13.20 13.20 0.0 0 0 98.7642 208.3828
  L 157.0927 174.5710
  A 13.20 13.20 0.0 0 0 161.8928 156.5311
  L 106.4558 60.8972
  Z
  M 72.52 58.48
  C 64.57 60.58 48.41 62.43 47.33 73.00
  Q 47.27 73.58 47.77 73.28
  L 72.68 58.85
  A 0.20 0.20 0.0 0 0 72.52 58.48
  Z"
/>
<path fill="#ffffff" d="
  M 160.09 38.44
  Q 161.01 38.91 159.99 38.72
  L 130.48 33.39
  Q 129.61 33.23 130.30 32.68
  C 135.29 28.69 140.00 28.98 145.94 31.65
  Q 152.94 34.79 160.09 38.44
  Z"
/>
<path fill="#ffffff" d="
  M 130.27 39.10
  Q 131.61 39.38 130.24 39.41
  L 97.98 39.96
  Q 97.27 39.97 97.75 39.45
  C 101.52 35.31 105.61 34.62 111.35 35.57
  Q 120.96 37.16 130.27 39.10
  Z"
/>
<path fill="#ffffff" d="
  M 139.24 44.78
  C 149.22 44.67 164.85 42.40 165.15 57.82
  Q 165.95 98.99 166.70 140.02
  A 0.24 0.23 -53.2 0 1 166.24 140.09
  Q 154.97 97.23 143.74 54.25
  Q 142.49 49.47 139.01 45.27
  Q 138.61 44.79 139.24 44.78
  Z"
/>
<path fill="#ffffff" d="
  M 123.34 45.50
  C 130.78 43.80 136.55 48.77 138.37 55.63
  Q 150.25 100.37 161.93 145.04
  A 0.21 0.20 -67.8 0 1 161.56 145.20
  Q 136.99 102.76 112.45 60.30
  Q 108.84 54.05 103.69 50.78
  Q 103.19 50.46 103.76 50.31
  Q 113.57 47.74 123.34 45.50
  Z"
/>
<path fill="#ffffff" d="
  M 73.41 51.61
  C 80.00 43.68 89.70 45.85 99.01 45.45
  A 0.23 0.23 0.0 0 1 99.08 45.90
  L 73.93 52.42
  Q 72.41 52.82 73.41 51.61
  Z"
/>
<path fill="#ffffff" d="
  M 181.04 49.30
  C 187.11 53.41 187.74 58.40 186.43 65.58
  Q 179.58 103.11 172.65 140.41
  A 0.27 0.27 0.0 0 1 172.12 140.37
  Q 171.40 99.91 170.69 60.25
  Q 170.54 51.86 166.80 46.09
  Q 166.44 45.53 167.08 45.67
  L 177.47 47.80
  Q 179.40 48.19 181.04 49.30
  Z"
/>
<path fill="#ffffff" d="
  M 191.95 54.21
  C 202.00 58.46 213.14 62.30 212.49 72.73
  Q 212.29 75.91 208.55 83.55
  Q 192.87 115.62 177.15 147.67
  A 0.17 0.16 -26.7 0 1 176.84 147.57
  Q 184.67 105.44 192.41 63.18
  Q 193.07 59.56 191.59 54.54
  Q 191.43 53.99 191.95 54.21
  Z"
/>
<path fill="#ffffff" d="
  M 161.8928 156.5311
  A 13.20 13.20 0.0 0 1 157.0927 174.5710
  L 98.7642 208.3828
  A 13.20 13.20 0.0 0 1 80.7242 203.5828
  L 25.2872 107.9489
  A 13.20 13.20 0.0 0 1 30.0873 89.9090
  L 88.4158 56.0972
  A 13.20 13.20 0.0 0 1 106.4558 60.8972
  L 161.8928 156.5311
  Z
  M 95.09 66.74
  Q 97.46 67.46 98.87 69.46
  Q 99.50 70.37 99.50 69.26
  L 99.50 68.72
  A 0.29 0.29 0.0 0 1 99.91 68.45
  Q 102.40 69.57 102.62 72.30
  A 0.70 0.69 58.0 0 0 103.91 72.60
  Q 107.96 65.73 101.20 61.60
  A 0.27 0.27 0.0 0 0 100.81 61.95
  L 101.65 63.86
  A 0.81 0.81 0.0 0 1 100.61 64.94
  C 100.04 64.70 99.29 64.07 98.99 63.45
  Q 96.01 57.21 88.94 58.16
  Q 88.29 58.25 88.77 58.69
  C 90.81 60.59 93.54 64.13 91.64 66.84
  Q 91.30 67.32 90.83 66.97
  L 88.96 65.56
  A 0.53 0.50 -32.7 0 0 88.53 65.48
  L 85.58 66.23
  A 0.38 0.38 0.0 0 0 85.59 66.97
  C 92.77 68.53 88.36 78.19 97.31 76.89
  A 0.42 0.42 0.0 0 0 97.55 76.19
  Q 95.38 73.91 96.71 70.76
  A 1.04 1.03 -51.6 0 0 96.60 69.75
  L 94.76 67.20
  A 0.30 0.30 0.0 0 1 95.09 66.74
  Z
  M 98.03 95.70
  Q 99.82 96.52 100.65 98.32
  A 0.92 0.89 -9.8 0 0 101.41 98.84
  C 103.40 98.98 106.24 98.08 106.27 95.64
  Q 106.29 93.98 105.17 93.30
  Q 101.73 91.23 98.47 88.82
  A 2.08 2.02 -85.1 0 1 97.79 87.99
  Q 96.63 85.46 94.25 84.01
  Q 93.86 83.78 93.62 83.39
  Q 90.34 78.10 84.58 81.13
  A 1.53 1.53 0.0 0 1 82.34 79.77
  C 82.36 73.77 76.70 72.54 73.29 76.65
  C 69.41 81.35 75.06 82.23 76.37 85.27
  A 0.78 0.77 -28.4 0 1 76.08 86.22
  C 72.89 88.32 71.90 90.95 73.16 94.75
  Q 74.59 99.07 76.59 102.92
  A 1.51 1.51 0.0 0 1 75.78 105.02
  Q 69.81 107.29 65.86 112.32
  Q 65.54 112.73 65.02 112.85
  C 47.87 116.89 60.28 127.73 64.49 134.43
  A 1.25 1.25 0.0 0 0 66.64 134.37
  L 68.73 130.61
  A 1.22 1.22 0.0 0 1 71.01 131.06
  C 71.97 139.27 77.08 139.24 80.57 145.13
  A 0.66 0.65 -30.4 0 0 81.47 145.36
  L 86.51 142.40
  Q 88.40 141.29 86.76 139.83
  L 79.17 133.09
  Q 78.78 132.75 78.80 132.23
  L 78.89 129.24
  A 0.46 0.46 0.0 0 1 79.77 129.08
  Q 81.74 133.96 86.45 136.33
  A 1.36 1.34 -2.4 0 1 86.99 136.82
  L 88.91 139.90
  Q 89.30 140.52 89.93 140.15
  L 94.78 137.33
  Q 96.91 136.09 95.04 134.49
  L 87.41 127.94
  A 0.69 0.68 22.9 0 1 87.17 127.36
  L 87.72 121.56
  Q 87.80 120.73 88.40 121.31
  Q 94.00 126.72 95.80 134.32
  A 2.01 2.01 0.0 0 0 98.41 135.76
  Q 101.64 134.64 103.43 131.89
  Q 103.73 131.41 103.32 131.03
  C 98.24 126.20 99.22 121.08 95.90 115.94
  A 1.13 1.13 0.0 0 1 97.52 114.41
  L 108.95 122.83
  Q 109.41 123.18 109.58 123.73
  Q 110.09 125.38 111.21 126.62
  A 1.02 1.01 -28.6 0 0 112.24 126.92
  Q 115.29 126.04 117.51 123.78
  Q 118.59 122.68 117.39 121.71
  Q 114.57 119.43 111.81 116.95
  C 108.47 113.93 106.65 109.52 103.28 106.11
  Q 102.94 105.76 102.93 105.27
  Q 102.79 99.40 97.74 96.24
  A 0.31 0.31 0.0 0 1 98.03 95.70
  Z
  M 125.92 135.85
  Q 91.07 156.66 79.43 163.92
  Q 76.69 165.63 78.94 167.30
  L 80.40 167.66
  Q 80.88 167.78 81.31 167.52
  Q 116.68 146.11 125.75 140.75
  C 127.08 139.97 128.95 138.02 127.70 136.47
  Q 127.08 135.70 125.92 135.85
  Z
  M 93.42 170.54
  L 94.17 171.00
  Q 94.58 171.24 94.99 171.00
  Q 109.45 162.20 123.97 153.47
  Q 124.69 153.04 123.74 152.35
  L 123.70 151.49
  L 123.82 151.03
  Q 123.95 150.52 123.44 150.38
  L 121.93 149.96
  L 93.38 167.16
  Q 92.95 167.42 92.81 167.89
  Q 92.43 169.17 93.42 170.54
  Z
  M 88.65 182.97
  Q 87.53 183.35 89.20 184.57
  A 1.94 1.92 -42.4 0 0 91.33 184.66
  Q 113.92 171.10 136.80 157.33
  Q 139.35 155.80 137.94 153.71
  Q 136.12 152.89 135.05 153.54
  Q 112.05 167.43 89.04 181.28
  Q 88.13 181.83 88.65 182.97
  Z
  M 156.43 158.88
  Q 155.63 160.36 155.99 161.99
  A 1.54 1.51 51.5 0 1 155.89 162.95
  Q 155.20 164.47 155.90 165.81
  A 0.65 0.65 0.0 0 0 156.79 166.08
  L 159.18 164.74
  A 0.39 0.38 -43.0 0 1 159.57 164.75
  L 160.62 165.41
  A 0.55 0.54 -0.6 0 0 161.37 164.65
  L 157.51 158.84
  A 0.63 0.63 0.0 0 0 156.43 158.88
  Z
  M 151.74 168.99
  L 152.84 169.01
  A 0.18 0.18 0.0 0 0 153.02 168.83
  L 153.10 164.98
  A 5.47 0.60 -88.9 0 0 152.60 159.50
  L 152.34 159.50
  A 5.47 0.60 -88.9 0 0 151.64 164.96
  L 151.56 168.81
  A 0.18 0.18 0.0 0 0 151.74 168.99
  Z
  M 149.72 169.88
  L 149.76 171.18
  Q 149.77 171.65 149.31 171.69
  L 147.31 171.88
  A 0.45 0.45 0.0 0 0 147.19 172.74
  Q 150.72 174.11 151.70 170.48
  A 0.77 0.76 36.4 0 0 151.60 169.86
  L 148.49 165.20
  Q 148.26 164.85 147.84 164.85
  Q 144.95 164.82 144.10 167.46
  A 0.76 0.76 0.0 0 0 145.49 168.05
  Q 146.07 166.96 147.23 166.52
  Q 148.07 166.21 147.83 167.08
  L 147.39 168.67
  Q 147.22 169.25 147.83 169.25
  L 149.07 169.25
  A 0.65 0.64 -0.4 0 1 149.72 169.88
  Z
  M 102.96 185.99
  Q 102.71 187.59 104.74 187.63
  Q 105.69 187.65 106.78 187.01
  Q 120.40 178.94 133.95 170.64
  Q 134.39 170.37 134.34 169.86
  Q 134.22 168.76 133.20 167.08
  Q 117.59 175.09 103.28 184.38
  Q 102.78 184.70 102.71 185.04
  Q 102.61 185.51 102.96 185.99
  Z"
/>
<path fill="#000000" d="
  M 94.76 67.20
  L 96.60 69.75
  A 1.04 1.03 -51.6 0 1 96.71 70.76
  Q 95.38 73.91 97.55 76.19
  A 0.42 0.42 0.0 0 1 97.31 76.89
  C 88.36 78.19 92.77 68.53 85.59 66.97
  A 0.38 0.38 0.0 0 1 85.58 66.23
  L 88.53 65.48
  A 0.53 0.50 -32.7 0 1 88.96 65.56
  L 90.83 66.97
  Q 91.30 67.32 91.64 66.84
  C 93.54 64.13 90.81 60.59 88.77 58.69
  Q 88.29 58.25 88.94 58.16
  Q 96.01 57.21 98.99 63.45
  C 99.29 64.07 100.04 64.70 100.61 64.94
  A 0.81 0.81 0.0 0 0 101.65 63.86
  L 100.81 61.95
  A 0.27 0.27 0.0 0 1 101.20 61.60
  Q 107.96 65.73 103.91 72.60
  A 0.70 0.69 58.0 0 1 102.62 72.30
  Q 102.40 69.57 99.91 68.45
  A 0.29 0.29 0.0 0 0 99.50 68.72
  L 99.50 69.26
  Q 99.50 70.37 98.87 69.46
  Q 97.46 67.46 95.09 66.74
  A 0.30 0.30 0.0 0 0 94.76 67.20
  Z"
/>
<path fill="#ffffff" d="
  M 47.33 73.00
  C 48.41 62.43 64.57 60.58 72.52 58.48
  A 0.20 0.20 0.0 0 1 72.68 58.85
  L 47.77 73.28
  Q 47.27 73.58 47.33 73.00
  Z"
/>
<path fill="#000000" d="
  M 97.74 96.24
  Q 102.79 99.40 102.93 105.27
  Q 102.94 105.76 103.28 106.11
  C 106.65 109.52 108.47 113.93 111.81 116.95
  Q 114.57 119.43 117.39 121.71
  Q 118.59 122.68 117.51 123.78
  Q 115.29 126.04 112.24 126.92
  A 1.02 1.01 -28.6 0 1 111.21 126.62
  Q 110.09 125.38 109.58 123.73
  Q 109.41 123.18 108.95 122.83
  L 97.52 114.41
  A 1.13 1.13 0.0 0 0 95.90 115.94
  C 99.22 121.08 98.24 126.20 103.32 131.03
  Q 103.73 131.41 103.43 131.89
  Q 101.64 134.64 98.41 135.76
  A 2.01 2.01 0.0 0 1 95.80 134.32
  Q 94.00 126.72 88.40 121.31
  Q 87.80 120.73 87.72 121.56
  L 87.17 127.36
  A 0.69 0.68 22.9 0 0 87.41 127.94
  L 95.04 134.49
  Q 96.91 136.09 94.78 137.33
  L 89.93 140.15
  Q 89.30 140.52 88.91 139.90
  L 86.99 136.82
  A 1.36 1.34 -2.4 0 0 86.45 136.33
  Q 81.74 133.96 79.77 129.08
  A 0.46 0.46 0.0 0 0 78.89 129.24
  L 78.80 132.23
  Q 78.78 132.75 79.17 133.09
  L 86.76 139.83
  Q 88.40 141.29 86.51 142.40
  L 81.47 145.36
  A 0.66 0.65 -30.4 0 1 80.57 145.13
  C 77.08 139.24 71.97 139.27 71.01 131.06
  A 1.22 1.22 0.0 0 0 68.73 130.61
  L 66.64 134.37
  A 1.25 1.25 0.0 0 1 64.49 134.43
  C 60.28 127.73 47.87 116.89 65.02 112.85
  Q 65.54 112.73 65.86 112.32
  Q 69.81 107.29 75.78 105.02
  A 1.51 1.51 0.0 0 0 76.59 102.92
  Q 74.59 99.07 73.16 94.75
  C 71.90 90.95 72.89 88.32 76.08 86.22
  A 0.78 0.77 -28.4 0 0 76.37 85.27
  C 75.06 82.23 69.41 81.35 73.29 76.65
  C 76.70 72.54 82.36 73.77 82.34 79.77
  A 1.53 1.53 0.0 0 0 84.58 81.13
  Q 90.34 78.10 93.62 83.39
  Q 93.86 83.78 94.25 84.01
  Q 96.63 85.46 97.79 87.99
  A 2.08 2.02 -85.1 0 0 98.47 88.82
  Q 101.73 91.23 105.17 93.30
  Q 106.29 93.98 106.27 95.64
  C 106.24 98.08 103.40 98.98 101.41 98.84
  A 0.92 0.89 -9.8 0 1 100.65 98.32
  Q 99.82 96.52 98.03 95.70
  A 0.31 0.31 0.0 0 0 97.74 96.24
  Z
  M 78.55 76.78
  Q 75.65 76.42 74.69 78.98
  Q 74.52 79.41 74.77 79.79
  Q 75.99 81.70 78.30 81.87
  A 1.17 1.17 0.0 0 0 79.55 80.63
  L 79.36 77.64
  A 0.93 0.92 -88.5 0 0 78.55 76.78
  Z
  M 91.10 84.97
  L 89.61 82.75
  Q 89.28 82.25 88.68 82.24
  Q 86.23 82.21 84.51 83.92
  A 0.93 0.92 37.7 0 1 83.40 84.06
  L 81.57 83.02
  A 0.46 0.46 0.0 0 0 81.08 83.03
  L 79.21 84.28
  Q 78.62 84.68 78.74 85.39
  Q 79.21 88.11 76.23 88.70
  A 0.41 0.40 -32.0 0 0 76.06 89.42
  Q 78.14 91.00 79.09 93.48
  A 0.64 0.64 0.0 0 0 80.06 93.77
  L 82.82 91.85
  A 0.87 0.87 0.0 0 1 83.87 91.89
  Q 84.83 92.68 83.75 93.49
  Q 82.60 94.34 81.64 95.58
  Q 81.22 96.12 81.71 96.59
  L 85.21 100.03
  Q 85.58 100.39 85.15 100.68
  Q 82.48 102.52 82.89 105.85
  C 83.11 107.57 84.85 108.15 83.83 110.15
  Q 82.70 112.39 79.99 112.78
  A 1.27 1.26 -28.9 0 1 79.00 112.50
  Q 76.69 110.58 77.34 107.45
  A 0.45 0.45 0.0 0 0 76.76 106.94
  Q 68.38 109.74 64.77 117.88
  C 62.44 123.14 69.07 127.33 73.20 129.03
  A 0.77 0.77 0.0 0 1 73.68 129.76
  Q 73.59 136.78 79.98 139.47
  A 1.17 1.13 84.9 0 1 80.49 139.91
  L 81.82 142.01
  Q 82.21 142.63 82.83 142.24
  L 83.77 141.65
  Q 84.34 141.29 83.77 140.92
  Q 81.98 139.78 81.06 137.86
  A 1.42 1.39 87.4 0 0 80.32 137.17
  C 70.15 133.17 84.17 122.82 72.31 117.51
  Q 71.69 117.24 72.04 116.66
  L 72.22 116.35
  A 1.32 1.32 0.0 0 1 73.74 115.76
  Q 78.90 117.33 79.86 122.63
  Q 79.96 123.17 80.47 122.99
  Q 85.36 121.34 87.72 116.95
  A 0.92 0.92 0.0 0 1 89.37 117.01
  C 91.13 120.93 94.43 123.16 95.91 126.83
  Q 97.14 129.89 98.20 133.00
  Q 98.36 133.46 98.79 133.24
  L 100.04 132.60
  Q 100.63 132.30 100.20 131.80
  C 95.65 126.46 96.77 121.30 92.84 116.42
  Q 92.56 116.08 92.73 115.68
  Q 93.99 112.69 93.24 109.54
  A 0.93 0.92 -1.7 0 1 94.30 108.42
  Q 96.29 108.76 95.92 110.96
  A 0.45 0.45 0.0 0 0 96.61 111.41
  C 104.54 106.10 98.74 98.79 92.56 96.03
  A 0.44 0.44 0.0 0 1 92.31 95.75
  L 90.76 90.81
  Q 90.54 90.10 89.86 90.40
  L 87.08 91.58
  Q 86.50 91.83 86.16 91.31
  L 85.74 90.67
  Q 85.40 90.16 85.95 89.89
  L 88.37 88.70
  A 1.46 1.45 -37.9 0 0 88.67 86.29
  Q 87.85 85.60 87.25 84.56
  A 1.19 1.19 0.0 0 1 89.24 83.25
  C 92.78 87.98 92.93 92.27 99.39 93.84
  A 0.58 0.58 0.0 0 0 99.82 92.77
  L 96.23 90.67
  A 0.63 0.60 -86.4 0 1 95.95 90.34
  Q 94.61 86.93 91.39 85.23
  A 0.74 0.74 0.0 0 1 91.10 84.97
  Z
  M 74.86 90.59
  C 75.54 93.55 76.82 98.60 78.91 100.78
  A 1.21 1.21 0.0 0 1 79.24 101.61
  L 79.26 105.15
  A 0.61 0.61 0.0 0 0 80.43 105.39
  C 83.37 98.59 75.92 96.59 75.69 90.44
  Q 75.68 90.25 75.49 90.25
  Q 75.33 90.25 75.16 90.24
  A 0.29 0.29 0.0 0 0 74.86 90.59
  Z
  M 103.45 95.29
  L 101.73 94.25
  Q 100.85 93.72 101.17 94.70
  Q 101.59 96.03 102.71 96.62
  A 0.76 0.76 0.0 0 0 103.45 95.29
  Z
  M 79.84 108.21
  Q 79.56 109.07 79.96 110.06
  A 1.00 0.81 -68.3 0 0 81.55 109.17
  Q 81.29 108.04 80.63 107.82
  Q 80.04 107.62 79.84 108.21
  Z
  M 99.72 112.79
  C 103.17 116.00 111.26 119.52 112.59 124.01
  Q 112.79 124.68 113.39 124.33
  L 114.52 123.66
  Q 115.07 123.34 114.60 122.91
  Q 112.31 120.85 109.94 118.89
  C 106.73 116.25 105.12 112.31 102.57 109.01
  Q 102.13 108.43 101.70 109.02
  L 99.63 111.86
  Q 99.27 112.36 99.72 112.79
  Z
  M 64.39 126.53
  Q 60.01 122.08 62.96 116.43
  Q 63.21 115.96 62.70 116.12
  C 53.93 118.96 62.17 127.03 65.05 130.19
  A 0.95 0.95 0.0 0 0 66.64 129.20
  C 65.94 127.46 65.48 127.63 64.39 126.53
  Z
  M 91.90 135.67
  C 89.98 133.73 88.90 132.54 86.29 130.70
  C 84.20 129.24 84.81 126.04 85.02 123.88
  A 0.37 0.37 0.0 0 0 84.48 123.51
  L 81.67 124.92
  Q 81.11 125.20 81.28 125.80
  Q 82.96 131.83 88.57 134.66
  Q 89.26 135.00 89.99 136.78
  Q 90.25 137.40 90.85 137.11
  L 91.73 136.69
  Q 92.53 136.31 91.90 135.67
  Z"
/>
<path fill="#ffffff" d="
  M 79.36 77.64
  L 79.55 80.63
  A 1.17 1.17 0.0 0 1 78.30 81.87
  Q 75.99 81.70 74.77 79.79
  Q 74.52 79.41 74.69 78.98
  Q 75.65 76.42 78.55 76.78
  A 0.93 0.92 -88.5 0 1 79.36 77.64
  Z"
/>
<path fill="#ffffff" d="
  M 91.39 85.23
  Q 94.61 86.93 95.95 90.34
  A 0.63 0.60 -86.4 0 0 96.23 90.67
  L 99.82 92.77
  A 0.58 0.58 0.0 0 1 99.39 93.84
  C 92.93 92.27 92.78 87.98 89.24 83.25
  A 1.19 1.19 0.0 0 0 87.25 84.56
  Q 87.85 85.60 88.67 86.29
  A 1.46 1.45 -37.9 0 1 88.37 88.70
  L 85.95 89.89
  Q 85.40 90.16 85.74 90.67
  L 86.16 91.31
  Q 86.50 91.83 87.08 91.58
  L 89.86 90.40
  Q 90.54 90.10 90.76 90.81
  L 92.31 95.75
  A 0.44 0.44 0.0 0 0 92.56 96.03
  C 98.74 98.79 104.54 106.10 96.61 111.41
  A 0.45 0.45 0.0 0 1 95.92 110.96
  Q 96.29 108.76 94.30 108.42
  A 0.93 0.92 -1.7 0 0 93.24 109.54
  Q 93.99 112.69 92.73 115.68
  Q 92.56 116.08 92.84 116.42
  C 96.77 121.30 95.65 126.46 100.20 131.80
  Q 100.63 132.30 100.04 132.60
  L 98.79 133.24
  Q 98.36 133.46 98.20 133.00
  Q 97.14 129.89 95.91 126.83
  C 94.43 123.16 91.13 120.93 89.37 117.01
  A 0.92 0.92 0.0 0 0 87.72 116.95
  Q 85.36 121.34 80.47 122.99
  Q 79.96 123.17 79.86 122.63
  Q 78.90 117.33 73.74 115.76
  A 1.32 1.32 0.0 0 0 72.22 116.35
  L 72.04 116.66
  Q 71.69 117.24 72.31 117.51
  C 84.17 122.82 70.15 133.17 80.32 137.17
  A 1.42 1.39 87.4 0 1 81.06 137.86
  Q 81.98 139.78 83.77 140.92
  Q 84.34 141.29 83.77 141.65
  L 82.83 142.24
  Q 82.21 142.63 81.82 142.01
  L 80.49 139.91
  A 1.17 1.13 84.9 0 0 79.98 139.47
  Q 73.59 136.78 73.68 129.76
  A 0.77 0.77 0.0 0 0 73.20 129.03
  C 69.07 127.33 62.44 123.14 64.77 117.88
  Q 68.38 109.74 76.76 106.94
  A 0.45 0.45 0.0 0 1 77.34 107.45
  Q 76.69 110.58 79.00 112.50
  A 1.27 1.26 -28.9 0 0 79.99 112.78
  Q 82.70 112.39 83.83 110.15
  C 84.85 108.15 83.11 107.57 82.89 105.85
  Q 82.48 102.52 85.15 100.68
  Q 85.58 100.39 85.21 100.03
  L 81.71 96.59
  Q 81.22 96.12 81.64 95.58
  Q 82.60 94.34 83.75 93.49
  Q 84.83 92.68 83.87 91.89
  A 0.87 0.87 0.0 0 0 82.82 91.85
  L 80.06 93.77
  A 0.64 0.64 0.0 0 1 79.09 93.48
  Q 78.14 91.00 76.06 89.42
  A 0.41 0.40 -32.0 0 1 76.23 88.70
  Q 79.21 88.11 78.74 85.39
  Q 78.62 84.68 79.21 84.28
  L 81.08 83.03
  A 0.46 0.46 0.0 0 1 81.57 83.02
  L 83.40 84.06
  A 0.93 0.92 37.7 0 0 84.51 83.92
  Q 86.23 82.21 88.68 82.24
  Q 89.28 82.25 89.61 82.75
  L 91.10 84.97
  A 0.74 0.74 0.0 0 0 91.39 85.23
  Z"
/>
<path fill="#ffffff" d="
  M 74.86 90.59
  A 0.29 0.29 0.0 0 1 75.16 90.24
  Q 75.33 90.25 75.49 90.25
  Q 75.68 90.25 75.69 90.44
  C 75.92 96.59 83.37 98.59 80.43 105.39
  A 0.61 0.61 0.0 0 1 79.26 105.15
  L 79.24 101.61
  A 1.21 1.21 0.0 0 0 78.91 100.78
  C 76.82 98.60 75.54 93.55 74.86 90.59
  Z"
/>
<path fill="#ffffff" d="
  M 103.45 95.29
  A 0.76 0.76 0.0 0 1 102.71 96.62
  Q 101.59 96.03 101.17 94.70
  Q 100.85 93.72 101.73 94.25
  L 103.45 95.29
  Z"
/>
<path fill="#ffffff" d="
  M 80.63 107.82
  Q 81.29 108.04 81.55 109.17
  A 1.00 0.81 -68.3 0 1 79.96 110.06
  Q 79.56 109.07 79.84 108.21
  Q 80.04 107.62 80.63 107.82
  Z"
/>
<path fill="#ffffff" d="
  M 112.59 124.01
  C 111.26 119.52 103.17 116.00 99.72 112.79
  Q 99.27 112.36 99.63 111.86
  L 101.70 109.02
  Q 102.13 108.43 102.57 109.01
  C 105.12 112.31 106.73 116.25 109.94 118.89
  Q 112.31 120.85 114.60 122.91
  Q 115.07 123.34 114.52 123.66
  L 113.39 124.33
  Q 112.79 124.68 112.59 124.01
  Z"
/>
<path fill="#ffffff" d="
  M 64.39 126.53
  C 65.48 127.63 65.94 127.46 66.64 129.20
  A 0.95 0.95 0.0 0 1 65.05 130.19
  C 62.17 127.03 53.93 118.96 62.70 116.12
  Q 63.21 115.96 62.96 116.43
  Q 60.01 122.08 64.39 126.53
  Z"
/>
<path fill="#ffffff" d="
  M 91.90 135.67
  Q 92.53 136.31 91.73 136.69
  L 90.85 137.11
  Q 90.25 137.40 89.99 136.78
  Q 89.26 135.00 88.57 134.66
  Q 82.96 131.83 81.28 125.80
  Q 81.11 125.20 81.67 124.92
  L 84.48 123.51
  A 0.37 0.37 0.0 0 1 85.02 123.88
  C 84.81 126.04 84.20 129.24 86.29 130.70
  C 88.90 132.54 89.98 133.73 91.90 135.67
  Z"
/>
<path fill="#504f54" d="
  M 78.94 167.30
  Q 80.39 166.86 80.83 166.60
  Q 104.01 152.58 127.15 138.49
  Q 127.62 138.21 127.50 137.68
  Q 127.29 136.76 125.92 135.85
  Q 127.08 135.70 127.70 136.47
  C 128.95 138.02 127.08 139.97 125.75 140.75
  Q 116.68 146.11 81.31 167.52
  Q 80.88 167.78 80.40 167.66
  L 78.94 167.30
  Z"
/>
<path fill="#000000" d="
  M 125.92 135.85
  Q 127.29 136.76 127.50 137.68
  Q 127.62 138.21 127.15 138.49
  Q 104.01 152.58 80.83 166.60
  Q 80.39 166.86 78.94 167.30
  Q 76.69 165.63 79.43 163.92
  Q 91.07 156.66 125.92 135.85
  Z"
/>
<path fill="#000000" d="
  M 121.93 149.96
  L 123.70 151.49
  L 123.74 152.35
  L 93.42 170.54
  Q 92.43 169.17 92.81 167.89
  Q 92.95 167.42 93.38 167.16
  L 121.93 149.96
  Z"
/>
<path fill="#504f54" d="
  M 121.93 149.96
  L 123.44 150.38
  Q 123.95 150.52 123.82 151.03
  L 123.70 151.49
  L 121.93 149.96
  Z"
/>
<path fill="#504f54" d="
  M 123.74 152.35
  Q 124.69 153.04 123.97 153.47
  Q 109.45 162.20 94.99 171.00
  Q 94.58 171.24 94.17 171.00
  L 93.42 170.54
  L 123.74 152.35
  Z"
/>
<path fill="#504f54" d="
  M 137.94 153.71
  Q 137.01 153.76 134.83 155.09
  Q 111.82 169.12 88.65 182.97
  Q 88.13 181.83 89.04 181.28
  Q 112.05 167.43 135.05 153.54
  Q 136.12 152.89 137.94 153.71
  Z"
/>
<path fill="#000000" d="
  M 137.94 153.71
  Q 139.35 155.80 136.80 157.33
  Q 113.92 171.10 91.33 184.66
  A 1.94 1.92 -42.4 0 1 89.20 184.57
  Q 87.53 183.35 88.65 182.97
  Q 111.82 169.12 134.83 155.09
  Q 137.01 153.76 137.94 153.71
  Z"
/>
<path fill="#504f54" d="
  M 157.51 158.84
  L 161.37 164.65
  A 0.55 0.54 -0.6 0 1 160.62 165.41
  L 159.57 164.75
  A 0.39 0.38 -43.0 0 0 159.18 164.74
  L 156.79 166.08
  A 0.65 0.65 0.0 0 1 155.90 165.81
  Q 155.20 164.47 155.89 162.95
  A 1.54 1.51 51.5 0 0 155.99 161.99
  Q 155.63 160.36 156.43 158.88
  A 0.63 0.63 0.0 0 1 157.51 158.84
  Z
  M 157.19 162.31
  Q 157.19 162.97 157.37 163.47
  A 0.64 0.55 30.7 0 0 158.55 163.26
  Q 158.23 162.27 157.69 161.46
  Q 157.29 160.87 157.05 161.55
  Q 156.88 162.05 157.19 162.31
  Z"
/>
<path fill="#504f54" d="
  M 151.74 168.99
  A 0.18 0.18 0.0 0 1 151.56 168.81
  L 151.64 164.96
  A 5.47 0.60 -88.9 0 1 152.34 159.50
  L 152.60 159.50
  A 5.47 0.60 -88.9 0 1 153.10 164.98
  L 153.02 168.83
  A 0.18 0.18 0.0 0 1 152.84 169.01
  L 151.74 168.99
  Z"
/>
<path fill="#ffffff" d="
  M 157.19 162.31
  Q 156.88 162.05 157.05 161.55
  Q 157.29 160.87 157.69 161.46
  Q 158.23 162.27 158.55 163.26
  A 0.64 0.55 30.7 0 1 157.37 163.47
  Q 157.19 162.97 157.19 162.31
  Z"
/>
<path fill="#504f54" d="
  M 149.07 169.25
  L 147.83 169.25
  Q 147.22 169.25 147.39 168.67
  L 147.83 167.08
  Q 148.07 166.21 147.23 166.52
  Q 146.07 166.96 145.49 168.05
  A 0.76 0.76 0.0 0 1 144.10 167.46
  Q 144.95 164.82 147.84 164.85
  Q 148.26 164.85 148.49 165.20
  L 151.60 169.86
  A 0.77 0.76 36.4 0 1 151.70 170.48
  Q 150.72 174.11 147.19 172.74
  A 0.45 0.45 0.0 0 1 147.31 171.88
  L 149.31 171.69
  Q 149.77 171.65 149.76 171.18
  L 149.72 169.88
  A 0.65 0.64 -0.4 0 0 149.07 169.25
  Z"
/>
<path fill="#504f54" d="
  M 133.20 167.08
  Q 121.96 175.09 110.49 181.54
  Q 106.58 183.74 102.96 185.99
  Q 102.61 185.51 102.71 185.04
  Q 102.78 184.70 103.28 184.38
  Q 117.59 175.09 133.20 167.08
  Z"
/>
<path fill="#000000" d="
  M 133.20 167.08
  Q 134.22 168.76 134.34 169.86
  Q 134.39 170.37 133.95 170.64
  Q 120.40 178.94 106.78 187.01
  Q 105.69 187.65 104.74 187.63
  Q 102.71 187.59 102.96 185.99
  Q 106.58 183.74 110.49 181.54
  Q 121.96 175.09 133.20 167.08
  Z"
/>
</svg>
